<svg xmlns="http://www.w3.org/2000/svg" width="42.88" height="34.594" viewBox="0 0 42.88 34.594">
  <defs>
    <style>
      .cls-1 {
        fill: #03a9f4;
        stroke: #020202;
        stroke-width: 1.5px;
      }
    </style>
  </defs>
  <path id="Icon_awesome-twitter" data-name="Icon awesome-twitter" class="cls-1" d="M36.233,11.555c.026.359.026.718.026,1.076,0,10.941-8.328,23.549-23.549,23.549A23.389,23.389,0,0,1,0,32.464a17.121,17.121,0,0,0,2,.1,16.576,16.576,0,0,0,10.275-3.536,8.291,8.291,0,0,1-7.739-5.74,10.437,10.437,0,0,0,1.563.128,8.754,8.754,0,0,0,2.178-.282A8.278,8.278,0,0,1,1.64,15.014v-.1a8.335,8.335,0,0,0,3.741,1.051A8.289,8.289,0,0,1,2.819,4.893a23.526,23.526,0,0,0,17.066,8.661,9.343,9.343,0,0,1-.2-1.9A8.285,8.285,0,0,1,34,5.994a16.3,16.3,0,0,0,5.253-2,8.254,8.254,0,0,1-3.639,4.561,16.592,16.592,0,0,0,4.766-1.281,17.791,17.791,0,0,1-4.151,4.279Z" transform="translate(0.406 -2.335)"/>
</svg>
