<svg width="537" height="536" viewBox="0 0 537 536" fill="none" xmlns="http://www.w3.org/2000/svg">
<path d="M268.671 533.348C415.212 533.348 534.007 414.553 534.007 268.012C534.007 121.471 415.212 2.67578 268.671 2.67578C122.13 2.67578 3.33447 121.471 3.33447 268.012C3.33447 414.553 122.13 533.348 268.671 533.348Z" stroke="#F2E9D8" stroke-width="4.6916" stroke-miterlimit="10"/>
<path d="M268.671 519.869C407.767 519.869 520.527 407.109 520.527 268.012C520.527 128.915 407.767 16.155 268.671 16.155C129.574 16.155 16.814 128.915 16.814 268.012C16.814 407.109 129.574 519.869 268.671 519.869Z" stroke="#F2E9D8" stroke-width="4.46819" stroke-miterlimit="10"/>
<path d="M268.67 506.316C400.282 506.316 506.974 399.624 506.974 268.013C506.974 136.401 400.282 29.7092 268.67 29.7092C137.059 29.7092 30.3667 136.401 30.3667 268.013C30.3667 399.624 137.059 506.316 268.67 506.316Z" stroke="#F2E9D8" stroke-width="4.17031" stroke-miterlimit="10"/>
<path d="M187.127 277.096H350.141" stroke="#F2E9D8" stroke-width="2.60644" stroke-miterlimit="10"/>
<path d="M268.67 195.626V358.641" stroke="#F2E9D8" stroke-width="2.60644" stroke-miterlimit="10"/>
<path d="M5.94189 528.88L61.1243 473.623" stroke="#F2E9D8" stroke-width="4.6916" stroke-miterlimit="10"/>
<path d="M69.313 488.592L77.8027 457.017L46.2275 465.432L69.313 488.592Z" fill="#292929"/>
<path d="M531.402 16.3025L476.146 71.4847" stroke="#F2E9D8" stroke-width="4.6916" stroke-miterlimit="10"/>
<path d="M467.951 56.5918L459.536 88.1669L491.111 79.6774L467.951 56.5918Z" fill="#292929"/>
</svg>
