<svg width="25" height="33" viewBox="0 0 25 33" fill="none" xmlns="http://www.w3.org/2000/svg">
<path d="M24.1995 20.9971C24.1995 24.0763 22.9762 27.0293 20.799 29.2066C18.6217 31.3839 15.6686 32.6071 12.5895 32.6071C9.51031 32.6071 6.5573 31.3839 4.38 29.2066C2.20271 27.0293 0.979492 24.0763 0.979492 20.9971C0.979492 14.5871 6.6995 0.76709 13.1095 0.76709C19.5195 0.76709 24.1995 14.5871 24.1995 20.9971Z" stroke="#F2E9D8" stroke-width="0.54" stroke-miterlimit="10"/>
<path d="M13.4093 30.9171C10.8442 30.9843 8.35709 30.0314 6.49365 28.2673C4.63021 26.5032 3.54262 24.072 3.46936 21.5071C3.31936 16.1671 7.95933 4.50708 13.3093 4.37708C18.6593 4.24708 22.6693 15.6271 22.8093 20.9671C22.882 23.533 21.9326 26.0227 20.1698 27.8886C18.407 29.7545 15.9752 30.8439 13.4093 30.9171Z" stroke="#F2E9D8" stroke-width="0.48" stroke-miterlimit="10"/>
<path d="M14.2291 29.2171C13.2129 29.2892 12.1925 29.1599 11.2264 28.8368C10.2603 28.5137 9.36749 28.003 8.59917 27.3341C7.83086 26.6652 7.20213 25.8512 6.74908 24.9388C6.29602 24.0264 6.02756 23.0335 5.95904 22.0171C5.65904 17.7471 9.22908 8.28708 13.4991 8.01708C17.7691 7.74708 21.129 16.6971 21.429 20.9671C21.5663 23.0154 20.8853 25.0346 19.5355 26.5813C18.1856 28.1281 16.2771 29.076 14.2291 29.2171Z" stroke="#F2E9D8" stroke-width="0.43" stroke-miterlimit="10"/>
<path d="M15.0592 27.5271C13.5185 27.7409 11.9558 27.3344 10.7146 26.3969C9.47335 25.4594 8.65499 24.0675 8.43921 22.5271C7.99921 19.3271 10.4892 12.0471 13.6992 11.5971C16.9092 11.1471 19.5992 17.7071 20.0492 20.9071C20.1565 21.6695 20.1125 22.4455 19.9198 23.1908C19.7271 23.9362 19.3893 24.6362 18.9259 25.251C18.4625 25.8658 17.8825 26.3833 17.219 26.7738C16.5555 27.1643 15.8216 27.4203 15.0592 27.5271Z" stroke="#F2E9D8" stroke-width="0.37" stroke-miterlimit="10"/>
<path d="M15.8396 25.8271C15.3282 25.979 14.7915 26.027 14.2611 25.9684C13.7308 25.9097 13.2177 25.7456 12.7518 25.4856C12.2858 25.2257 11.8766 24.8751 11.5483 24.4546C11.2199 24.0341 10.979 23.5521 10.8396 23.0371C10.2396 20.8971 11.6696 15.8071 13.8396 15.2171C16.0096 14.6271 18.0197 18.7371 18.6197 20.8771C18.7641 21.3847 18.8068 21.9158 18.745 22.4399C18.6833 22.964 18.5185 23.4707 18.2601 23.9308C18.0016 24.3909 17.6547 24.7954 17.2393 25.1208C16.8239 25.4463 16.3482 25.6863 15.8396 25.8271Z" stroke="#F2E9D8" stroke-width="0.31" stroke-miterlimit="10"/>
<path d="M16.6996 24.1571C16.1862 24.513 15.5525 24.6506 14.9377 24.5401C14.3228 24.4295 13.7769 24.0796 13.4196 23.5672C12.6696 22.4972 13.0197 19.5672 14.0897 18.8472C15.1597 18.1272 16.5396 19.7972 17.2896 20.8472C17.4692 21.1029 17.5964 21.3916 17.664 21.6967C17.7315 22.0018 17.738 22.3173 17.6832 22.6249C17.6283 22.9325 17.5132 23.2263 17.3444 23.4892C17.1756 23.7522 16.9565 23.9792 16.6996 24.1571Z" stroke="#F2E9D8" stroke-width="0.26" stroke-miterlimit="10"/>
</svg>
