<svg width="536" height="537" viewBox="0 0 536 537" fill="none" xmlns="http://www.w3.org/2000/svg">
<path d="M494.408 3H41.4174C19.9663 3 2.57666 20.3895 2.57666 41.8407V494.831C2.57666 516.282 19.9663 533.672 41.4174 533.672H494.408C515.859 533.672 533.249 516.282 533.249 494.831V41.8407C533.249 20.3895 515.859 3 494.408 3Z" stroke="#C8BAB1" stroke-width="4.76992" stroke-miterlimit="10"/>
<path d="M475.253 22.0797H60.4975C39.0464 22.0797 21.6567 39.4693 21.6567 60.9205V475.676C21.6567 497.127 39.0464 514.517 60.4975 514.517H475.253C496.704 514.517 514.094 497.127 514.094 475.676V60.9205C514.094 39.4693 496.704 22.0797 475.253 22.0797Z" stroke="#C8BAB1" stroke-width="3.33137" stroke-miterlimit="10"/>
<path d="M456.173 41.1597H79.5771C58.126 41.1597 40.7363 58.5493 40.7363 80.0005V456.597C40.7363 478.048 58.126 495.437 79.5771 495.437H456.173C477.624 495.437 495.014 478.048 495.014 456.597V80.0005C495.014 58.5493 477.624 41.1597 456.173 41.1597Z" stroke="#C8BAB1" stroke-width="1.89282" stroke-miterlimit="10"/>
<path d="M418.619 60.0879H437.244C447.545 60.0879 457.424 64.1801 464.708 71.4641C471.992 78.7482 476.085 88.6275 476.085 98.9287V120.128" stroke="#C8BAB1" stroke-width="3.70993" stroke-miterlimit="10"/>
<path d="M118.19 477.948H99.5649C89.2637 477.948 79.3845 473.856 72.1005 466.572C64.8164 459.288 60.7241 449.408 60.7241 439.107V417.983" stroke="#C8BAB1" stroke-width="3.70993" stroke-miterlimit="10"/>
<path d="M442.696 104.228C450.055 104.228 456.021 98.262 456.021 90.9026C456.021 83.5431 450.055 77.577 442.696 77.577C435.336 77.577 429.37 83.5431 429.37 90.9026C429.37 98.262 435.336 104.228 442.696 104.228Z" fill="#292929"/>
<path d="M95.7797 461.291C103.139 461.291 109.105 455.325 109.105 447.965C109.105 440.606 103.139 434.64 95.7797 434.64C88.4202 434.64 82.4541 440.606 82.4541 447.965C82.4541 455.325 88.4202 461.291 95.7797 461.291Z" fill="#292929"/>
<path d="M51.4116 53.2736L168.085 170.023" stroke="#C8BAB1" stroke-width="4.76992" stroke-miterlimit="10"/>
<path d="M152.866 178.275L185.044 186.906L176.413 154.804L152.866 178.275Z" fill="#292929"/>
<path d="M485.399 474.162L368.725 357.489" stroke="#C8BAB1" stroke-width="4.76992" stroke-miterlimit="10"/>
<path d="M383.866 349.159L351.764 340.604L360.396 372.706L383.866 349.159Z" fill="#292929"/>
<path d="M352.522 294.117C352.867 305.873 350.85 317.578 346.59 328.54C342.329 339.502 335.913 349.497 327.72 357.934C319.526 366.371 309.724 373.079 298.892 377.659C288.06 382.239 276.418 384.599 264.657 384.599C252.897 384.599 241.256 382.239 230.424 377.659C219.592 373.079 209.789 366.371 201.595 357.934C193.402 349.497 186.986 339.502 182.725 328.54C178.465 317.578 176.448 305.873 176.793 294.117C176.793 245.585 220.025 140.874 268.557 140.874C317.089 140.874 352.522 245.585 352.522 294.117Z" stroke="#C8BAB1" stroke-width="4.0885" stroke-miterlimit="10"/>
<path d="M270.904 369.148C261.253 369.471 251.634 367.884 242.598 364.478C233.563 361.072 225.29 355.914 218.254 349.3C211.218 342.687 205.559 334.748 201.601 325.94C197.643 317.133 195.465 307.63 195.191 297.978C194.055 257.547 229.261 169.266 269.692 168.206C310.123 167.146 340.56 253.459 341.695 293.889C342.246 313.246 335.106 332.032 321.839 346.136C308.572 360.241 290.257 368.515 270.904 369.148Z" stroke="#C8BAB1" stroke-width="3.63422" stroke-miterlimit="10"/>
<path d="M277.112 356.353C261.575 357.414 246.251 352.272 234.5 342.053C222.748 331.834 215.528 317.373 214.422 301.839C212.15 269.434 239.18 197.81 271.585 195.841C303.99 193.873 329.354 261.484 331.625 293.889C332.624 309.388 327.454 324.654 317.241 336.355C307.029 348.057 292.604 355.245 277.112 356.353Z" stroke="#C8BAB1" stroke-width="3.25566" stroke-miterlimit="10"/>
<path d="M283.32 343.481C277.547 344.292 271.671 343.956 266.028 342.491C260.385 341.026 255.087 338.461 250.437 334.944C245.788 331.427 241.878 327.027 238.933 321.995C235.988 316.964 234.065 311.401 233.274 305.625C229.867 281.321 248.795 226.277 273.023 222.87C297.252 219.463 317.771 269.055 321.102 293.359C321.925 299.133 321.599 305.012 320.144 310.659C318.688 316.306 316.132 321.61 312.622 326.267C309.112 330.924 304.716 334.842 299.688 337.796C294.659 340.75 289.097 342.682 283.32 343.481Z" stroke="#C8BAB1" stroke-width="2.80138" stroke-miterlimit="10"/>
<path d="M289.529 330.534C285.656 331.684 281.592 332.048 277.577 331.604C273.562 331.16 269.677 329.917 266.149 327.949C262.622 325.98 259.524 323.326 257.037 320.142C254.551 316.959 252.727 313.31 251.672 309.41C247.205 293.208 257.956 254.67 274.386 250.127C290.816 245.584 306.034 276.854 310.501 293.056C311.596 296.894 311.922 300.911 311.46 304.875C310.997 308.839 309.756 312.673 307.807 316.156C305.858 319.638 303.24 322.702 300.103 325.169C296.966 327.637 293.372 329.46 289.529 330.534Z" stroke="#C8BAB1" stroke-width="2.3471" stroke-miterlimit="10"/>
<path d="M295.812 317.815C291.921 320.52 287.119 321.577 282.452 320.754C277.785 319.931 273.633 317.296 270.903 313.423C265.3 305.322 267.874 283.138 275.975 277.611C284.076 272.084 294.525 285.182 300.204 292.753C301.577 294.682 302.552 296.864 303.075 299.172C303.598 301.481 303.657 303.871 303.248 306.202C302.839 308.534 301.972 310.761 300.695 312.755C299.419 314.748 297.759 316.468 295.812 317.815Z" stroke="#C8BAB1" stroke-width="1.96854" stroke-miterlimit="10"/>
</svg>
