<svg width="44" height="44" viewBox="0 0 44 44" fill="none" xmlns="http://www.w3.org/2000/svg">
<path d="M22.0201 43.0885C33.5644 43.0885 42.923 33.7299 42.923 22.1856C42.923 10.6413 33.5644 1.28271 22.0201 1.28271C10.4757 1.28271 1.11719 10.6413 1.11719 22.1856C1.11719 33.7299 10.4757 43.0885 22.0201 43.0885Z" stroke="#F2E9D8" stroke-width="0.63" stroke-miterlimit="10"/>
<path d="M22.0202 33.9189C28.5003 33.9189 33.7535 28.6657 33.7535 22.1856C33.7535 15.7055 28.5003 10.4523 22.0202 10.4523C15.54 10.4523 10.2869 15.7055 10.2869 22.1856C10.2869 28.6657 15.54 33.9189 22.0202 33.9189Z" stroke="#F2E9D8" stroke-width="0.35" stroke-miterlimit="10"/>
<path d="M22.0201 32.6986C27.8263 32.6986 32.5332 27.9918 32.5332 22.1856C32.5332 16.3794 27.8263 11.6726 22.0201 11.6726C16.214 11.6726 11.5071 16.3794 11.5071 22.1856C11.5071 27.9918 16.214 32.6986 22.0201 32.6986Z" stroke="#F2E9D8" stroke-width="0.32" stroke-miterlimit="10"/>
<path d="M22.02 31.4725C27.1491 31.4725 31.3069 27.3146 31.3069 22.1856C31.3069 17.0566 27.1491 12.8987 22.02 12.8987C16.891 12.8987 12.7332 17.0566 12.7332 22.1856C12.7332 27.3146 16.891 31.4725 22.02 31.4725Z" stroke="#F2E9D8" stroke-width="0.28" stroke-miterlimit="10"/>
<path d="M22.02 30.2523C26.4751 30.2523 30.0867 26.6407 30.0867 22.1856C30.0867 17.7305 26.4751 14.119 22.02 14.119C17.5649 14.119 13.9534 17.7305 13.9534 22.1856C13.9534 26.6407 17.5649 30.2523 22.02 30.2523Z" stroke="#F2E9D8" stroke-width="0.24" stroke-miterlimit="10"/>
<path d="M22.02 29.032C25.8011 29.032 28.8664 25.9668 28.8664 22.1856C28.8664 18.4044 25.8011 15.3392 22.02 15.3392C18.2388 15.3392 15.1736 18.4044 15.1736 22.1856C15.1736 25.9668 18.2388 29.032 22.02 29.032Z" stroke="#F2E9D8" stroke-width="0.21" stroke-miterlimit="10"/>
<path d="M22.0201 27.8059C25.1241 27.8059 27.6404 25.2896 27.6404 22.1856C27.6404 19.0816 25.1241 16.5654 22.0201 16.5654C18.9161 16.5654 16.3999 19.0816 16.3999 22.1856C16.3999 25.2896 18.9161 27.8059 22.0201 27.8059Z" stroke="#F2E9D8" stroke-width="0.17" stroke-miterlimit="10"/>
<path d="M22.0201 26.5856C24.4502 26.5856 26.4201 24.6156 26.4201 22.1856C26.4201 19.7555 24.4502 17.7856 22.0201 17.7856C19.5901 17.7856 17.6201 19.7555 17.6201 22.1856C17.6201 24.6156 19.5901 26.5856 22.0201 26.5856Z" stroke="#F2E9D8" stroke-width="0.13" stroke-miterlimit="10"/>
<path d="M22.4132 7.75949C23.3204 7.75949 24.0558 7.02405 24.0558 6.11683C24.0558 5.20961 23.3204 4.47417 22.4132 4.47417C21.506 4.47417 20.7705 5.20961 20.7705 6.11683C20.7705 7.02405 21.506 7.75949 22.4132 7.75949Z" stroke="#F2E9D8" stroke-width="0.35" stroke-miterlimit="10"/>
<path d="M22.0201 40.5893C22.9274 40.5893 23.6628 39.8538 23.6628 38.9466C23.6628 38.0394 22.9274 37.304 22.0201 37.304C21.1129 37.304 20.3774 38.0394 20.3774 38.9466C20.3774 39.8538 21.1129 40.5893 22.0201 40.5893Z" stroke="#F2E9D8" stroke-width="0.35" stroke-miterlimit="10"/>
<path d="M10.2867 22.1856H4.53149" stroke="#F2E9D8" stroke-width="0.35" stroke-miterlimit="10"/>
<path d="M39.5086 22.4203H33.7534" stroke="#F2E9D8" stroke-width="0.35" stroke-miterlimit="10"/>
</svg>
