<svg width="61" height="53" viewBox="0 0 61 53" fill="none" xmlns="http://www.w3.org/2000/svg">
<path d="M32.0698 51.0561L59.3627 3.77396C59.5243 3.49757 59.61 3.1834 59.6111 2.86323C59.6123 2.54306 59.5289 2.22826 59.3693 1.95071C59.2097 1.67315 58.9795 1.44271 58.7022 1.28268C58.4249 1.12266 58.1102 1.03874 57.79 1.03943H3.18674C2.86686 1.03987 2.55273 1.12433 2.27576 1.28436C1.99879 1.44439 1.7687 1.67439 1.60857 1.95131C1.44844 2.22822 1.36384 2.54233 1.36328 2.8622C1.36273 3.18208 1.44631 3.49649 1.60548 3.77396L28.8722 51.0561C29.0299 51.342 29.2614 51.5804 29.5426 51.7464C29.8238 51.9124 30.1443 52 30.4709 52C30.7974 52 31.1181 51.9124 31.3993 51.7464C31.6805 51.5804 31.912 51.342 32.0698 51.0561Z" stroke="#F2E9D8" stroke-width="0.81" stroke-miterlimit="10"/>
<path d="M30.4887 1.58109L15.6191 27.3451H45.3583L30.4887 1.58109Z" stroke="#F2E9D8" stroke-width="0.5" stroke-miterlimit="10"/>
<path d="M30.4884 3.94865L18.0913 25.423H42.8856L30.4884 3.94865Z" stroke="#F2E9D8" stroke-width="0.44" stroke-miterlimit="10"/>
<path d="M30.4882 6.30753L20.5635 23.501H40.4128L30.4882 6.30753Z" stroke="#F2E9D8" stroke-width="0.37" stroke-miterlimit="10"/>
<path d="M30.4884 8.6664L23.0361 21.579H37.9407L30.4884 8.6664Z" stroke="#F2E9D8" stroke-width="0.31" stroke-miterlimit="10"/>
<path d="M30.488 11.0252L25.4995 19.6569H35.4679L30.488 11.0252Z" stroke="#F2E9D8" stroke-width="0.24" stroke-miterlimit="10"/>
<path d="M50.1543 1.18794H52.3034C52.8986 1.18212 53.4891 1.29491 54.0402 1.51973C54.5913 1.74455 55.0921 2.07689 55.5134 2.49736C55.9347 2.91783 56.2679 3.41801 56.4938 3.96869C56.7197 4.51937 56.8337 5.10953 56.829 5.70472V8.15095" stroke="#F2E9D8" stroke-width="0.49" stroke-miterlimit="10"/>
<path d="M52.9327 6.28133C53.7819 6.28133 54.4703 5.5929 54.4703 4.74369C54.4703 3.89449 53.7819 3.20607 52.9327 3.20607C52.0834 3.20607 51.395 3.89449 51.395 4.74369C51.395 5.5929 52.0834 6.28133 52.9327 6.28133Z" fill="#C8BAB1"/>
<path d="M35.2758 45.954L33.7556 47.4828C32.9153 48.322 31.7762 48.7934 30.5886 48.7934C29.401 48.7934 28.262 48.322 27.4216 47.4828L25.6743 45.7355" stroke="#F2E9D8" stroke-width="0.49" stroke-miterlimit="10"/>
<path d="M30.8028 46.9498C31.652 46.9498 32.3404 46.2614 32.3404 45.4122C32.3404 44.563 31.652 43.8745 30.8028 43.8745C29.9536 43.8745 29.2651 44.563 29.2651 45.4122C29.2651 46.2614 29.9536 46.9498 30.8028 46.9498Z" fill="#C8BAB1"/>
<path d="M3.91162 7.82768V5.70471C3.91162 4.51756 4.38252 3.3789 5.22114 2.53865C6.05976 1.69839 7.19758 1.22518 8.38472 1.22286H10.8309" stroke="#F2E9D8" stroke-width="0.49" stroke-miterlimit="10"/>
<path d="M7.45902 6.57834C8.30823 6.57834 8.99666 5.88993 8.99666 5.04072C8.99666 4.19151 8.30823 3.50308 7.45902 3.50308C6.60982 3.50308 5.92139 4.19151 5.92139 5.04072C5.92139 5.88993 6.60982 6.57834 7.45902 6.57834Z" fill="#C8BAB1"/>
</svg>
