<svg width="615" height="539" viewBox="0 0 615 539" fill="none" xmlns="http://www.w3.org/2000/svg">
<path d="M290.881 13.6864L6.54244 506.116C4.88469 509.005 4.0143 512.28 4.02005 515.611C4.0258 518.943 4.90693 522.214 6.57465 525.098C8.24238 527.982 10.6386 530.378 13.5232 532.044C16.4077 533.711 19.6793 534.591 23.0108 534.595H591.871C595.202 534.591 598.474 533.711 601.358 532.044C604.243 530.378 606.639 527.982 608.307 525.098C609.974 522.214 610.856 518.943 610.861 515.611C610.867 512.28 609.998 509.005 608.34 506.116L324.001 13.6864C322.365 10.7283 319.965 8.26256 317.053 6.54559C314.14 4.82863 310.821 3.9231 307.441 3.9231C304.06 3.9231 300.741 4.82863 297.829 6.54559C294.917 8.26256 292.518 10.7283 290.881 13.6864Z" stroke="#C8BAB1" stroke-width="7.37006" stroke-miterlimit="10"/>
<path d="M61.1367 485.461C59.4789 488.351 58.6085 491.625 58.6143 494.957C58.62 498.288 59.5012 501.56 61.1689 504.444C62.8366 507.328 65.2329 509.723 68.1174 511.389C71.002 513.056 74.2736 513.936 77.605 513.94H580.134C583.465 513.936 586.737 513.056 589.622 511.389C592.506 509.723 594.902 507.328 596.57 504.444C598.238 501.56 599.119 498.288 599.125 494.957C599.13 491.625 598.261 488.351 596.603 485.461L345.293 50.1724C343.637 47.2796 341.245 44.8757 338.362 43.2039C335.478 41.532 332.203 40.6516 328.869 40.6516C325.536 40.6516 322.261 41.532 319.377 43.2039C316.494 44.8757 314.103 47.2796 312.447 50.1724L61.1367 485.461Z" stroke="#C8BAB1" stroke-width="6.55117" stroke-miterlimit="10"/>
<path d="M115.73 464.716C114.072 467.606 113.202 470.88 113.208 474.212C113.213 477.543 114.094 480.815 115.762 483.699C117.43 486.583 119.826 488.978 122.711 490.644C125.595 492.311 128.867 493.191 132.198 493.195H568.943C572.274 493.191 575.546 492.311 578.43 490.644C581.315 488.978 583.711 486.583 585.379 483.699C587.047 480.815 587.928 477.543 587.934 474.212C587.939 470.88 587.07 467.606 585.412 464.716L367.04 86.7502C365.383 83.8574 362.992 81.4535 360.108 79.7816C357.224 78.1098 353.95 77.2292 350.616 77.2292C347.283 77.2292 344.008 78.1098 341.124 79.7816C338.24 81.4535 335.85 83.8574 334.193 86.7502L115.73 464.716Z" stroke="#C8BAB1" stroke-width="5.82326" stroke-miterlimit="10"/>
<path d="M170.323 443.972C168.665 446.861 167.795 450.136 167.8 453.467C167.806 456.799 168.687 460.07 170.355 462.954C172.023 465.838 174.419 468.233 177.303 469.9C180.188 471.567 183.46 472.447 186.791 472.451H557.205C560.547 472.474 563.836 471.612 566.737 469.952C569.638 468.292 572.048 465.893 573.721 463C575.394 460.107 576.271 456.822 576.263 453.48C576.255 450.137 575.361 446.857 573.674 443.972L388.513 123.146C386.844 120.256 384.443 117.855 381.552 116.186C378.661 114.517 375.382 113.638 372.043 113.638C368.705 113.638 365.427 114.517 362.536 116.186C359.645 117.855 357.244 120.256 355.575 123.146L170.323 443.972Z" stroke="#C8BAB1" stroke-width="5.00436" stroke-miterlimit="10"/>
<path d="M224.916 423.317C223.228 426.202 222.335 429.483 222.327 432.825C222.319 436.167 223.196 439.452 224.869 442.346C226.542 445.239 228.951 447.637 231.852 449.298C234.753 450.958 238.042 451.82 241.384 451.796H545.741C549.076 451.804 552.353 450.93 555.241 449.263C558.129 447.596 560.525 445.196 562.187 442.306C563.85 439.415 564.719 436.137 564.707 432.802C564.695 429.468 563.802 426.195 562.118 423.317L409.986 159.451C408.317 156.56 405.916 154.159 403.025 152.49C400.134 150.821 396.855 149.942 393.516 149.942C390.178 149.942 386.9 150.821 384.009 152.49C381.118 154.159 378.717 156.56 377.048 159.451L224.916 423.317Z" stroke="#C8BAB1" stroke-width="4.27646" stroke-miterlimit="10"/>
<path d="M279.509 402.571C277.825 405.449 276.932 408.722 276.92 412.056C276.907 415.391 277.777 418.669 279.44 421.56C281.102 424.45 283.498 426.85 286.386 428.517C289.274 430.184 292.551 431.058 295.886 431.05H534.185C537.527 431.074 540.816 430.211 543.717 428.551C546.618 426.891 549.027 424.493 550.7 421.599C552.373 418.706 553.251 415.421 553.243 412.079C553.234 408.737 552.341 405.456 550.653 402.571L431.55 196.209C429.881 193.318 427.48 190.918 424.589 189.249C421.698 187.58 418.419 186.701 415.08 186.701C411.742 186.701 408.464 187.58 405.573 189.249C402.682 190.918 400.281 193.318 398.612 196.209L279.509 402.571Z" stroke="#C8BAB1" stroke-width="3.54855" stroke-miterlimit="10"/>
<path d="M420.176 232.696L334.101 381.917C332.418 384.795 331.524 388.067 331.512 391.402C331.5 394.736 332.37 398.015 334.033 400.905C335.695 403.796 338.091 406.196 340.979 407.863C343.867 409.529 347.144 410.403 350.479 410.396H522.72C526.052 410.391 529.323 409.512 532.208 407.845C535.092 406.178 537.489 403.783 539.156 400.899C540.824 398.015 541.705 394.744 541.711 391.412C541.717 388.081 540.846 384.806 539.189 381.917L453.114 232.696C451.445 229.805 449.044 227.404 446.153 225.735C443.262 224.066 439.983 223.187 436.644 223.187C433.306 223.187 430.028 224.066 427.137 225.735C424.246 227.404 421.845 229.805 420.176 232.696Z" stroke="#C8BAB1" stroke-width="2.72965" stroke-miterlimit="10"/>
<path d="M457.752 360.807C466.597 360.807 473.766 353.637 473.766 344.793C473.766 335.949 466.597 328.779 457.752 328.779C448.908 328.779 441.738 335.949 441.738 344.793C441.738 353.637 448.908 360.807 457.752 360.807Z" fill="#C8BAB1"/>
<path d="M3.99463 523.859L398.065 371.18" stroke="#C8BAB1" stroke-width="5.73227" stroke-miterlimit="10"/>
<path d="M399.884 391.925L424.906 360.807L385.417 354.711L399.884 391.925Z" fill="#C8BAB1"/>
</svg>
