<svg width="58" height="58" viewBox="0 0 58 58" fill="none" xmlns="http://www.w3.org/2000/svg">
<g filter="url(#filter0_d_11_121)">
<path d="M36.8281 19.8H20.3667C19.6124 19.8 18.9995 20.3955 18.9995 21.1266V36.8734C18.9995 37.6045 19.6124 38.2 20.3667 38.2H36.8281C37.5824 38.2 38.1995 37.6045 38.1995 36.8734V21.1266C38.1995 20.3955 37.5824 19.8 36.8281 19.8ZM24.8024 35.5714H21.9567V26.7904H24.8067V35.5714H24.8024ZM23.3795 25.5911C22.4667 25.5911 21.7295 24.8805 21.7295 24.0098C21.7295 23.1391 22.4667 22.4286 23.3795 22.4286C24.2881 22.4286 25.0295 23.1391 25.0295 24.0098C25.0295 24.8846 24.2924 25.5911 23.3795 25.5911ZM35.4695 35.5714H32.6238V31.3C32.6238 30.2814 32.6024 28.9713 31.1452 28.9713C29.6624 28.9713 29.4352 30.0802 29.4352 31.2261V35.5714H26.5895V26.7904H29.3195V27.9896H29.3581C29.7395 27.2996 30.6695 26.5727 32.0538 26.5727C34.9338 26.5727 35.4695 28.3921 35.4695 30.7579V35.5714Z" fill="#B7ABAC"/>
<path d="M21.4567 35.5714V36.0714H21.9567H24.8024H24.8067H25.3067V35.5714V26.7904V26.2904H24.8067H21.9567H21.4567V26.7904V35.5714ZM35.4695 36.0714H35.9695V35.5714V30.7579C35.9695 29.5621 35.8398 28.3853 35.2593 27.5033C34.6469 26.5726 33.6085 26.0727 32.0538 26.0727C31.138 26.0727 30.3828 26.3549 29.8195 26.7589V26.2904H29.3195H26.5895H26.0895V26.7904V35.5714V36.0714H26.5895H29.4352H29.9352V35.5714V31.2261C29.9352 30.6635 29.9959 30.2164 30.1674 29.9185C30.2465 29.7812 30.3483 29.6775 30.4867 29.6042C30.6287 29.5289 30.8363 29.4713 31.1452 29.4713C31.4335 29.4713 31.6053 29.5353 31.7125 29.6072C31.8194 29.6788 31.9035 29.7861 31.9687 29.9442C32.1116 30.291 32.1238 30.7684 32.1238 31.3V35.5714V36.0714H32.6238H35.4695ZM20.3667 20.3H36.8281C37.3224 20.3 37.6995 20.6876 37.6995 21.1266V36.8734C37.6995 37.3124 37.3224 37.7 36.8281 37.7H20.3667C19.8744 37.7 19.4995 37.3145 19.4995 36.8734V21.1266C19.4995 20.6856 19.8744 20.3 20.3667 20.3ZM21.2295 24.0098C21.2295 25.1757 22.2099 26.0911 23.3795 26.0911C24.5482 26.0911 25.5295 25.1806 25.5295 24.0098C25.5295 22.8431 24.544 21.9286 23.3795 21.9286C22.2099 21.9286 21.2295 22.844 21.2295 24.0098Z" stroke="black"/>
</g>
<rect x="0.499512" y="0.5" width="57" height="57" rx="28.5" stroke="#EBEBEB" stroke-opacity="0.08"/>
<defs>
<filter id="filter0_d_11_121" x="14.9995" y="19.8" width="27.2002" height="26.4" filterUnits="userSpaceOnUse" color-interpolation-filters="sRGB">
<feFlood flood-opacity="0" result="BackgroundImageFix"/>
<feColorMatrix in="SourceAlpha" type="matrix" values="0 0 0 0 0 0 0 0 0 0 0 0 0 0 0 0 0 0 127 0" result="hardAlpha"/>
<feOffset dy="4"/>
<feGaussianBlur stdDeviation="2"/>
<feComposite in2="hardAlpha" operator="out"/>
<feColorMatrix type="matrix" values="0 0 0 0 0 0 0 0 0 0 0 0 0 0 0 0 0 0 0.25 0"/>
<feBlend mode="normal" in2="BackgroundImageFix" result="effect1_dropShadow_11_121"/>
<feBlend mode="normal" in="SourceGraphic" in2="effect1_dropShadow_11_121" result="shape"/>
</filter>
</defs>
</svg>
