<svg width="58" height="58" viewBox="0 0 58 58" fill="none" xmlns="http://www.w3.org/2000/svg">
<path d="M35.4788 24.6983L35.2743 24.8611L35.2914 25.122C35.3013 25.2735 35.3015 25.4278 35.3015 25.601C35.3015 30.6316 31.8018 36.297 25.5386 36.297C24.234 36.297 22.9915 36.0194 21.8555 35.5125C23.2853 35.3172 24.5933 34.7018 25.6737 33.778L26.6675 32.9283L25.3603 32.8981C24.2606 32.8728 23.2836 32.222 22.7444 31.2289C23.0878 31.221 23.4267 31.1664 23.7426 31.0771L23.7146 30.1077C22.5303 29.8458 21.5618 28.8325 21.2903 27.4974C21.6184 27.6044 21.9655 27.6696 22.3241 27.6843L23.975 27.7522L22.6387 26.7804C21.8006 26.1709 21.2365 25.1172 21.2365 23.9076C21.2365 23.5525 21.284 23.215 21.3721 22.898C23.2101 25.0109 25.7786 26.3759 28.637 26.5388L29.2768 26.5752L29.1566 25.9458C29.1057 25.6794 29.0761 25.4066 29.0761 25.1381C29.0761 23.2028 30.5014 21.7031 32.1832 21.7031C33.0635 21.7031 33.867 22.1047 34.4394 22.7714L34.6319 22.9956L34.9211 22.9351C35.2661 22.8629 35.6051 22.7645 35.9346 22.6424C35.7335 22.8769 35.5027 23.08 35.2494 23.245L35.5806 24.1606C35.7821 24.1369 35.9815 24.1038 36.1783 24.0621C35.9575 24.2904 35.7237 24.5032 35.4788 24.6983Z" fill="#B7ABAC" stroke="black"/>
<rect x="0.499512" y="0.5" width="57" height="57" rx="28.5" stroke="#EBEBEB" stroke-opacity="0.08"/>
</svg>
